<svg xmlns="http://www.w3.org/2000/svg" viewBox="0 0 128 128" role="img" aria-labelledby="title">
  <title>Free X Video Saver logo</title>
  <rect width="128" height="128" rx="24" fill="#10201d"/>
  <path d="M28 36c0-7.7 6.3-14 14-14h44c7.7 0 14 6.3 14 14v56c0 7.7-6.3 14-14 14H42c-7.7 0-14-6.3-14-14V36Z" fill="#f8fafc"/>
  <path d="M44 41.5c0-4.2 4.7-6.8 8.3-4.5l31.4 19.5c3.4 2.1 3.4 7 0 9.1L52.3 85.1c-3.6 2.2-8.3-.3-8.3-4.5V41.5Z" fill="#0f766e"/>
  <path d="M63.8 73.3V47.7h8.4v25.6h10.5L68 90.7 53.3 73.3h10.5Z" fill="#ffffff"/>
  <path d="M34 25h60v10H34V25Z" fill="#22c55e"/>
</svg>
